<mxfile host="app.diagrams.net" agent="Mozilla/5.0 (Windows NT 10.0; Win64; x64) AppleWebKit/537.36 (KHTML, like Gecko) Chrome/141.0.0.0 Safari/537.36 Edg/141.0.0.0" version="28.2.8">
  <diagram name="Page-1" id="FMseboLZ0XI1_Wknfj70">
    <mxGraphModel grid="1" page="1" gridSize="10" guides="1" tooltips="1" connect="1" arrows="1" fold="1" pageScale="1" pageWidth="850" pageHeight="1100" math="0" shadow="0">
      <root>
        <mxCell id="0" />
        <mxCell id="1" parent="0" />
        <mxCell id="F-xZ0R_77eairracCa1--10" value="FlightNums" style="rhombus;whiteSpace=wrap;html=1;" vertex="1" parent="1">
          <mxGeometry x="-410" y="350" width="100" height="50" as="geometry" />
        </mxCell>
        <mxCell id="F-xZ0R_77eairracCa1--12" value="&lt;u&gt;FlightNum&lt;/u&gt;&lt;div&gt;VARCHAR(7)&lt;/div&gt;" style="ellipse;whiteSpace=wrap;html=1;" vertex="1" parent="1">
          <mxGeometry x="-533.75" y="350" width="105" height="50" as="geometry" />
        </mxCell>
        <mxCell id="F-xZ0R_77eairracCa1--13" value="DepartICAO&lt;div&gt;VARCHAR(4)&lt;/div&gt;" style="ellipse;whiteSpace=wrap;html=1;" vertex="1" parent="1">
          <mxGeometry x="-380" y="102" width="90" height="49" as="geometry" />
        </mxCell>
        <mxCell id="F-xZ0R_77eairracCa1--14" value="ArrICAO&lt;div&gt;VARCHAR(4)&lt;/div&gt;" style="ellipse;whiteSpace=wrap;html=1;" vertex="1" parent="1">
          <mxGeometry x="-480" y="102" width="90" height="53" as="geometry" />
        </mxCell>
        <mxCell id="F-xZ0R_77eairracCa1--16" value="Distance&lt;div&gt;FLOAT&lt;/div&gt;" style="ellipse;whiteSpace=wrap;html=1;" vertex="1" parent="1">
          <mxGeometry x="-520" y="160.38" width="87.5" height="44.25" as="geometry" />
        </mxCell>
        <mxCell id="F-xZ0R_77eairracCa1--17" value="" style="endArrow=none;html=1;rounded=0;exitX=0.5;exitY=0;exitDx=0;exitDy=0;entryX=0.5;entryY=1;entryDx=0;entryDy=0;" edge="1" parent="1" source="CB5iQfPsW-FyMFzqWrHo-1" target="F-xZ0R_77eairracCa1--13">
          <mxGeometry width="50" height="50" relative="1" as="geometry">
            <mxPoint x="-195" y="405" as="sourcePoint" />
            <mxPoint x="-145" y="355" as="targetPoint" />
          </mxGeometry>
        </mxCell>
        <mxCell id="F-xZ0R_77eairracCa1--18" value="" style="endArrow=none;html=1;rounded=0;entryX=1;entryY=0.5;entryDx=0;entryDy=0;exitX=0;exitY=0.5;exitDx=0;exitDy=0;" edge="1" parent="1" source="F-xZ0R_77eairracCa1--10" target="F-xZ0R_77eairracCa1--12">
          <mxGeometry width="50" height="50" relative="1" as="geometry">
            <mxPoint x="-215" y="425" as="sourcePoint" />
            <mxPoint x="-165" y="375" as="targetPoint" />
          </mxGeometry>
        </mxCell>
        <mxCell id="F-xZ0R_77eairracCa1--20" value="" style="endArrow=none;html=1;rounded=0;exitX=1;exitY=1;exitDx=0;exitDy=0;entryX=0.5;entryY=0;entryDx=0;entryDy=0;" edge="1" parent="1" source="F-xZ0R_77eairracCa1--16" target="CB5iQfPsW-FyMFzqWrHo-1">
          <mxGeometry width="50" height="50" relative="1" as="geometry">
            <mxPoint x="-185" y="455" as="sourcePoint" />
            <mxPoint x="-135" y="405" as="targetPoint" />
          </mxGeometry>
        </mxCell>
        <mxCell id="F-xZ0R_77eairracCa1--22" value="" style="endArrow=none;html=1;rounded=0;entryX=0.5;entryY=1;entryDx=0;entryDy=0;exitX=0.5;exitY=0;exitDx=0;exitDy=0;" edge="1" parent="1" source="CB5iQfPsW-FyMFzqWrHo-1" target="F-xZ0R_77eairracCa1--14">
          <mxGeometry width="50" height="50" relative="1" as="geometry">
            <mxPoint x="-285" y="425" as="sourcePoint" />
            <mxPoint x="-235" y="375" as="targetPoint" />
          </mxGeometry>
        </mxCell>
        <mxCell id="F-xZ0R_77eairracCa1--23" value="FlightInstances" style="rounded=0;whiteSpace=wrap;html=1;" vertex="1" parent="1">
          <mxGeometry x="-150" y="355" width="100" height="40" as="geometry" />
        </mxCell>
        <mxCell id="F-xZ0R_77eairracCa1--26" value="&lt;u&gt;FlightID&lt;/u&gt;&lt;div&gt;&lt;span style=&quot;color: rgb(229, 229, 229); font-family: monospace; font-size: 13px; text-align: start; white-space: pre; background-color: rgba(22, 24, 30, 0.5);&quot;&gt;uniqueidentifier&lt;/span&gt;&lt;u&gt;&lt;/u&gt;&lt;/div&gt;" style="ellipse;whiteSpace=wrap;html=1;" vertex="1" parent="1">
          <mxGeometry x="-210" y="191" width="135" height="55" as="geometry" />
        </mxCell>
        <mxCell id="nj9FIbpez40UQN-nSTiB-1" value="" style="endArrow=classic;html=1;rounded=0;exitX=1;exitY=0.5;exitDx=0;exitDy=0;entryX=-0.015;entryY=0.52;entryDx=0;entryDy=0;entryPerimeter=0;" edge="1" parent="1" source="F-xZ0R_77eairracCa1--10" target="F-xZ0R_77eairracCa1--23">
          <mxGeometry width="50" height="50" relative="1" as="geometry">
            <mxPoint x="-165" y="535" as="sourcePoint" />
            <mxPoint x="-115" y="485" as="targetPoint" />
          </mxGeometry>
        </mxCell>
        <mxCell id="nj9FIbpez40UQN-nSTiB-2" value="" style="endArrow=none;html=1;rounded=0;entryX=0.5;entryY=1;entryDx=0;entryDy=0;exitX=0.5;exitY=0;exitDx=0;exitDy=0;" edge="1" parent="1" source="F-xZ0R_77eairracCa1--23" target="F-xZ0R_77eairracCa1--26">
          <mxGeometry width="50" height="50" relative="1" as="geometry">
            <mxPoint x="-210" y="415" as="sourcePoint" />
            <mxPoint x="-160" y="365" as="targetPoint" />
          </mxGeometry>
        </mxCell>
        <mxCell id="nj9FIbpez40UQN-nSTiB-3" value="FlightNum&lt;div&gt;VARCHAR(7)&lt;/div&gt;" style="ellipse;whiteSpace=wrap;html=1;" vertex="1" parent="1">
          <mxGeometry x="-265" y="246" width="100" height="55" as="geometry" />
        </mxCell>
        <mxCell id="nj9FIbpez40UQN-nSTiB-4" value="" style="endArrow=none;html=1;rounded=0;entryX=1;entryY=1;entryDx=0;entryDy=0;exitX=0.5;exitY=0;exitDx=0;exitDy=0;" edge="1" parent="1" source="F-xZ0R_77eairracCa1--23" target="nj9FIbpez40UQN-nSTiB-3">
          <mxGeometry width="50" height="50" relative="1" as="geometry">
            <mxPoint x="-200" y="405" as="sourcePoint" />
            <mxPoint x="-150" y="355" as="targetPoint" />
          </mxGeometry>
        </mxCell>
        <mxCell id="nj9FIbpez40UQN-nSTiB-6" value="DepartTime&lt;div&gt;DATETIME&lt;/div&gt;" style="ellipse;whiteSpace=wrap;html=1;" vertex="1" parent="1">
          <mxGeometry x="-50" y="233.62" width="90" height="60" as="geometry" />
        </mxCell>
        <mxCell id="nj9FIbpez40UQN-nSTiB-7" value="" style="endArrow=none;html=1;rounded=0;entryX=0.5;entryY=0;entryDx=0;entryDy=0;exitX=0;exitY=1;exitDx=0;exitDy=0;" edge="1" parent="1" source="nj9FIbpez40UQN-nSTiB-6" target="F-xZ0R_77eairracCa1--23">
          <mxGeometry width="50" height="50" relative="1" as="geometry">
            <mxPoint x="-200" y="435" as="sourcePoint" />
            <mxPoint x="-150" y="385" as="targetPoint" />
          </mxGeometry>
        </mxCell>
        <mxCell id="nj9FIbpez40UQN-nSTiB-9" value="Status&lt;div&gt;NVARCHAR(MAX)&lt;/div&gt;" style="ellipse;whiteSpace=wrap;html=1;" vertex="1" parent="1">
          <mxGeometry x="-270" y="305" width="110" height="60" as="geometry" />
        </mxCell>
        <mxCell id="nj9FIbpez40UQN-nSTiB-10" value="" style="endArrow=none;html=1;rounded=0;exitX=1;exitY=0.5;exitDx=0;exitDy=0;entryX=0.5;entryY=0;entryDx=0;entryDy=0;" edge="1" parent="1" source="nj9FIbpez40UQN-nSTiB-9" target="F-xZ0R_77eairracCa1--23">
          <mxGeometry width="50" height="50" relative="1" as="geometry">
            <mxPoint x="-160" y="475" as="sourcePoint" />
            <mxPoint x="-103" y="355" as="targetPoint" />
          </mxGeometry>
        </mxCell>
        <mxCell id="nj9FIbpez40UQN-nSTiB-12" value="AircraftTypes" style="rounded=0;whiteSpace=wrap;html=1;" vertex="1" parent="1">
          <mxGeometry x="-150" y="467.5" width="100" height="50" as="geometry" />
        </mxCell>
        <mxCell id="nj9FIbpez40UQN-nSTiB-13" value="&lt;u&gt;AcID&lt;/u&gt;&lt;div&gt;VARCHAR(4)&lt;/div&gt;" style="ellipse;whiteSpace=wrap;html=1;" vertex="1" parent="1">
          <mxGeometry x="-265" y="517.5" width="100" height="55" as="geometry" />
        </mxCell>
        <mxCell id="nj9FIbpez40UQN-nSTiB-14" value="" style="endArrow=none;html=1;rounded=0;exitX=1;exitY=0.5;exitDx=0;exitDy=0;entryX=0.5;entryY=1;entryDx=0;entryDy=0;" edge="1" parent="1" source="nj9FIbpez40UQN-nSTiB-13" target="nj9FIbpez40UQN-nSTiB-12">
          <mxGeometry width="50" height="50" relative="1" as="geometry">
            <mxPoint x="-30" y="487.5" as="sourcePoint" />
            <mxPoint x="20" y="437.5" as="targetPoint" />
          </mxGeometry>
        </mxCell>
        <mxCell id="nj9FIbpez40UQN-nSTiB-15" value="AcName&lt;div&gt;NVARCHAR(MAX)&lt;/div&gt;" style="ellipse;whiteSpace=wrap;html=1;" vertex="1" parent="1">
          <mxGeometry x="-250" y="582.5" width="115" height="57.5" as="geometry" />
        </mxCell>
        <mxCell id="nj9FIbpez40UQN-nSTiB-16" value="" style="endArrow=none;html=1;rounded=0;exitX=1;exitY=0;exitDx=0;exitDy=0;entryX=0.5;entryY=1;entryDx=0;entryDy=0;" edge="1" parent="1" source="nj9FIbpez40UQN-nSTiB-15" target="nj9FIbpez40UQN-nSTiB-12">
          <mxGeometry width="50" height="50" relative="1" as="geometry">
            <mxPoint x="-70" y="422.5" as="sourcePoint" />
            <mxPoint x="-190" y="427.5" as="targetPoint" />
          </mxGeometry>
        </mxCell>
        <mxCell id="nj9FIbpez40UQN-nSTiB-17" value="SeatCapacity&lt;div&gt;INT&lt;/div&gt;" style="ellipse;whiteSpace=wrap;html=1;" vertex="1" parent="1">
          <mxGeometry x="-127.5" y="600" width="100" height="52.5" as="geometry" />
        </mxCell>
        <mxCell id="nj9FIbpez40UQN-nSTiB-18" value="MaxDistance&lt;div&gt;INT&lt;/div&gt;" style="ellipse;whiteSpace=wrap;html=1;" vertex="1" parent="1">
          <mxGeometry x="-20" y="587.5" width="100" height="52.5" as="geometry" />
        </mxCell>
        <mxCell id="nj9FIbpez40UQN-nSTiB-19" value="" style="endArrow=none;html=1;rounded=0;exitX=0.5;exitY=0;exitDx=0;exitDy=0;entryX=0.5;entryY=1;entryDx=0;entryDy=0;" edge="1" parent="1" source="nj9FIbpez40UQN-nSTiB-17" target="nj9FIbpez40UQN-nSTiB-12">
          <mxGeometry width="50" height="50" relative="1" as="geometry">
            <mxPoint x="-10" y="477.5" as="sourcePoint" />
            <mxPoint x="40" y="427.5" as="targetPoint" />
          </mxGeometry>
        </mxCell>
        <mxCell id="nj9FIbpez40UQN-nSTiB-20" value="" style="endArrow=none;html=1;rounded=0;exitX=0.486;exitY=-0.001;exitDx=0;exitDy=0;exitPerimeter=0;entryX=0.5;entryY=1;entryDx=0;entryDy=0;" edge="1" parent="1" source="nj9FIbpez40UQN-nSTiB-18" target="nj9FIbpez40UQN-nSTiB-12">
          <mxGeometry width="50" height="50" relative="1" as="geometry">
            <mxPoint x="-10" y="477.5" as="sourcePoint" />
            <mxPoint x="40" y="427.5" as="targetPoint" />
          </mxGeometry>
        </mxCell>
        <mxCell id="nj9FIbpez40UQN-nSTiB-21" value="AcID&lt;div&gt;VARCHAR(4)&lt;/div&gt;" style="ellipse;whiteSpace=wrap;html=1;" vertex="1" parent="1">
          <mxGeometry x="-40" y="299.37" width="90" height="55" as="geometry" />
        </mxCell>
        <mxCell id="nj9FIbpez40UQN-nSTiB-22" value="" style="endArrow=none;html=1;rounded=0;exitX=0;exitY=0.5;exitDx=0;exitDy=0;entryX=0.5;entryY=0;entryDx=0;entryDy=0;" edge="1" parent="1" source="nj9FIbpez40UQN-nSTiB-21" target="F-xZ0R_77eairracCa1--23">
          <mxGeometry width="50" height="50" relative="1" as="geometry">
            <mxPoint x="210" y="410" as="sourcePoint" />
            <mxPoint x="90" y="415" as="targetPoint" />
          </mxGeometry>
        </mxCell>
        <mxCell id="nj9FIbpez40UQN-nSTiB-23" value="WTCatego&lt;span style=&quot;background-color: transparent; color: light-dark(rgb(0, 0, 0), rgb(255, 255, 255));&quot;&gt;ry&lt;/span&gt;&lt;div&gt;VARCHAR(1)&lt;/div&gt;" style="ellipse;whiteSpace=wrap;html=1;" vertex="1" parent="1">
          <mxGeometry x="10" y="515" width="100" height="50" as="geometry" />
        </mxCell>
        <mxCell id="nj9FIbpez40UQN-nSTiB-24" value="" style="endArrow=none;html=1;rounded=0;entryX=0;entryY=0.5;entryDx=0;entryDy=0;exitX=0.5;exitY=1;exitDx=0;exitDy=0;" edge="1" parent="1" source="nj9FIbpez40UQN-nSTiB-12" target="nj9FIbpez40UQN-nSTiB-23">
          <mxGeometry width="50" height="50" relative="1" as="geometry">
            <mxPoint x="-110" y="482.5" as="sourcePoint" />
            <mxPoint x="-60" y="432.5" as="targetPoint" />
          </mxGeometry>
        </mxCell>
        <mxCell id="nj9FIbpez40UQN-nSTiB-25" value="" style="endArrow=classic;html=1;rounded=0;entryX=0.5;entryY=1;entryDx=0;entryDy=0;exitX=0.5;exitY=0;exitDx=0;exitDy=0;" edge="1" parent="1" source="nj9FIbpez40UQN-nSTiB-12" target="F-xZ0R_77eairracCa1--23">
          <mxGeometry width="50" height="50" relative="1" as="geometry">
            <mxPoint x="-230" y="525" as="sourcePoint" />
            <mxPoint x="-180" y="475" as="targetPoint" />
          </mxGeometry>
        </mxCell>
        <mxCell id="nj9FIbpez40UQN-nSTiB-27" value="Airlines" style="rounded=0;whiteSpace=wrap;html=1;" vertex="1" parent="1">
          <mxGeometry x="-407.5" y="527.5" width="95" height="40" as="geometry" />
        </mxCell>
        <mxCell id="nj9FIbpez40UQN-nSTiB-30" value="&lt;u&gt;AirlineID&lt;/u&gt;&lt;div&gt;VARCHAR(3)&lt;/div&gt;" style="ellipse;whiteSpace=wrap;html=1;" vertex="1" parent="1">
          <mxGeometry x="-285" y="660" width="100" height="60" as="geometry" />
        </mxCell>
        <mxCell id="nj9FIbpez40UQN-nSTiB-31" value="AirlineName&lt;div&gt;NVARCHAR(MAX)&lt;/div&gt;" style="ellipse;whiteSpace=wrap;html=1;" vertex="1" parent="1">
          <mxGeometry x="-580" y="457.5" width="135" height="57.5" as="geometry" />
        </mxCell>
        <mxCell id="nj9FIbpez40UQN-nSTiB-33" value="OperatingCountry&lt;div&gt;VARCHAR(2)&lt;/div&gt;" style="ellipse;whiteSpace=wrap;html=1;" vertex="1" parent="1">
          <mxGeometry x="-570" y="521" width="125" height="57.5" as="geometry" />
        </mxCell>
        <mxCell id="nj9FIbpez40UQN-nSTiB-34" value="" style="endArrow=none;html=1;rounded=0;entryX=0.5;entryY=1;entryDx=0;entryDy=0;exitX=0.5;exitY=0;exitDx=0;exitDy=0;" edge="1" parent="1" source="nj9FIbpez40UQN-nSTiB-30" target="nj9FIbpez40UQN-nSTiB-27">
          <mxGeometry width="50" height="50" relative="1" as="geometry">
            <mxPoint x="-285" y="555" as="sourcePoint" />
            <mxPoint x="-305" y="555" as="targetPoint" />
          </mxGeometry>
        </mxCell>
        <mxCell id="nj9FIbpez40UQN-nSTiB-35" value="" style="endArrow=none;html=1;rounded=0;exitX=1;exitY=1;exitDx=0;exitDy=0;entryX=0;entryY=0.5;entryDx=0;entryDy=0;" edge="1" parent="1" source="nj9FIbpez40UQN-nSTiB-31" target="nj9FIbpez40UQN-nSTiB-27">
          <mxGeometry width="50" height="50" relative="1" as="geometry">
            <mxPoint x="-75" y="477.5" as="sourcePoint" />
            <mxPoint x="-25" y="427.5" as="targetPoint" />
          </mxGeometry>
        </mxCell>
        <mxCell id="nj9FIbpez40UQN-nSTiB-36" value="" style="endArrow=none;html=1;rounded=0;exitX=1;exitY=0.5;exitDx=0;exitDy=0;entryX=0;entryY=0.5;entryDx=0;entryDy=0;" edge="1" parent="1" source="nj9FIbpez40UQN-nSTiB-33" target="nj9FIbpez40UQN-nSTiB-27">
          <mxGeometry width="50" height="50" relative="1" as="geometry">
            <mxPoint x="-75" y="477.5" as="sourcePoint" />
            <mxPoint x="-345" y="577.5" as="targetPoint" />
          </mxGeometry>
        </mxCell>
        <mxCell id="nj9FIbpez40UQN-nSTiB-39" value="Address&lt;div&gt;NVARCHAR(MAX)&lt;/div&gt;" style="ellipse;whiteSpace=wrap;html=1;" vertex="1" parent="1">
          <mxGeometry x="-580" y="585" width="135" height="57.5" as="geometry" />
        </mxCell>
        <mxCell id="nj9FIbpez40UQN-nSTiB-40" value="Email&lt;div&gt;NVARCHAR(255)&lt;/div&gt;" style="ellipse;whiteSpace=wrap;html=1;" vertex="1" parent="1">
          <mxGeometry x="-522.5" y="652.5" width="112.5" height="67.5" as="geometry" />
        </mxCell>
        <mxCell id="nj9FIbpez40UQN-nSTiB-41" value="PhoneNum&lt;div&gt;NVARCHAR(20)&lt;/div&gt;" style="ellipse;whiteSpace=wrap;html=1;" vertex="1" parent="1">
          <mxGeometry x="-400" y="656.25" width="110" height="63.75" as="geometry" />
        </mxCell>
        <mxCell id="nj9FIbpez40UQN-nSTiB-42" value="" style="endArrow=none;html=1;rounded=0;exitX=1;exitY=0;exitDx=0;exitDy=0;entryX=0;entryY=0.5;entryDx=0;entryDy=0;" edge="1" parent="1" source="nj9FIbpez40UQN-nSTiB-39" target="nj9FIbpez40UQN-nSTiB-27">
          <mxGeometry width="50" height="50" relative="1" as="geometry">
            <mxPoint x="-275" y="687.5" as="sourcePoint" />
            <mxPoint x="-225" y="637.5" as="targetPoint" />
          </mxGeometry>
        </mxCell>
        <mxCell id="nj9FIbpez40UQN-nSTiB-44" value="" style="endArrow=classic;html=1;rounded=0;exitX=0.5;exitY=0;exitDx=0;exitDy=0;entryX=0.5;entryY=1;entryDx=0;entryDy=0;" edge="1" parent="1" source="nj9FIbpez40UQN-nSTiB-27" target="F-xZ0R_77eairracCa1--10">
          <mxGeometry width="50" height="50" relative="1" as="geometry">
            <mxPoint x="-445" y="515" as="sourcePoint" />
            <mxPoint x="-395" y="465" as="targetPoint" />
          </mxGeometry>
        </mxCell>
        <mxCell id="nj9FIbpez40UQN-nSTiB-45" value="" style="endArrow=none;html=1;rounded=0;exitX=0.5;exitY=0;exitDx=0;exitDy=0;entryX=0.5;entryY=1;entryDx=0;entryDy=0;" edge="1" parent="1" source="nj9FIbpez40UQN-nSTiB-40" target="nj9FIbpez40UQN-nSTiB-27">
          <mxGeometry width="50" height="50" relative="1" as="geometry">
            <mxPoint x="-235" y="507.5" as="sourcePoint" />
            <mxPoint x="-185" y="457.5" as="targetPoint" />
          </mxGeometry>
        </mxCell>
        <mxCell id="nj9FIbpez40UQN-nSTiB-46" value="" style="endArrow=none;html=1;rounded=0;exitX=0.5;exitY=0;exitDx=0;exitDy=0;entryX=0.5;entryY=1;entryDx=0;entryDy=0;" edge="1" parent="1" source="nj9FIbpez40UQN-nSTiB-41" target="nj9FIbpez40UQN-nSTiB-27">
          <mxGeometry width="50" height="50" relative="1" as="geometry">
            <mxPoint x="-264.99999999999204" y="585" as="sourcePoint" />
            <mxPoint x="-205" y="497.5" as="targetPoint" />
          </mxGeometry>
        </mxCell>
        <mxCell id="OlggcCYzcKpH4P3dhMfZ-2" value="Airports" style="rounded=0;whiteSpace=wrap;html=1;" vertex="1" parent="1">
          <mxGeometry x="-635" y="222.01" width="92.5" height="40" as="geometry" />
        </mxCell>
        <mxCell id="OlggcCYzcKpH4P3dhMfZ-3" value="&lt;u&gt;ApID&lt;/u&gt;&lt;br&gt;VARCHAR(4)" style="ellipse;whiteSpace=wrap;html=1;" vertex="1" parent="1">
          <mxGeometry x="-770" y="213.75" width="90" height="56.5" as="geometry" />
        </mxCell>
        <mxCell id="OlggcCYzcKpH4P3dhMfZ-4" value="" style="endArrow=none;html=1;rounded=0;entryX=0;entryY=0.5;entryDx=0;entryDy=0;exitX=1;exitY=0.5;exitDx=0;exitDy=0;" edge="1" parent="1" source="OlggcCYzcKpH4P3dhMfZ-3" target="OlggcCYzcKpH4P3dhMfZ-2">
          <mxGeometry width="50" height="50" relative="1" as="geometry">
            <mxPoint x="-805" y="260" as="sourcePoint" />
            <mxPoint x="-755" y="210" as="targetPoint" />
          </mxGeometry>
        </mxCell>
        <mxCell id="OlggcCYzcKpH4P3dhMfZ-5" value="ApName&lt;br&gt;NVARCHAR(MAX)" style="ellipse;whiteSpace=wrap;html=1;" vertex="1" parent="1">
          <mxGeometry x="-780" y="147.88" width="122.5" height="55" as="geometry" />
        </mxCell>
        <mxCell id="OlggcCYzcKpH4P3dhMfZ-6" value="" style="endArrow=none;html=1;rounded=0;entryX=1;entryY=0.5;entryDx=0;entryDy=0;exitX=0;exitY=0.5;exitDx=0;exitDy=0;" edge="1" parent="1" source="OlggcCYzcKpH4P3dhMfZ-2" target="OlggcCYzcKpH4P3dhMfZ-5">
          <mxGeometry width="50" height="50" relative="1" as="geometry">
            <mxPoint x="-555" y="190" as="sourcePoint" />
            <mxPoint x="-505" y="140" as="targetPoint" />
          </mxGeometry>
        </mxCell>
        <mxCell id="OlggcCYzcKpH4P3dhMfZ-7" value="Address&lt;br&gt;NVARCHAR(MAX)" style="ellipse;whiteSpace=wrap;html=1;" vertex="1" parent="1">
          <mxGeometry x="-775" y="285" width="112.5" height="67.38" as="geometry" />
        </mxCell>
        <mxCell id="OlggcCYzcKpH4P3dhMfZ-8" value="TimeOffset&lt;br&gt;INT" style="ellipse;whiteSpace=wrap;html=1;" vertex="1" parent="1">
          <mxGeometry x="-638.75" y="146.13" width="100" height="58.5" as="geometry" />
        </mxCell>
        <mxCell id="OlggcCYzcKpH4P3dhMfZ-10" value="MaxWTCategory&lt;div&gt;VARCHAR(1)&lt;/div&gt;" style="ellipse;whiteSpace=wrap;html=1;" vertex="1" parent="1">
          <mxGeometry x="-643.75" y="286.5" width="110" height="55" as="geometry" />
        </mxCell>
        <mxCell id="OlggcCYzcKpH4P3dhMfZ-11" value="" style="endArrow=none;html=1;rounded=0;exitX=1;exitY=0.5;exitDx=0;exitDy=0;entryX=0;entryY=0.5;entryDx=0;entryDy=0;" edge="1" parent="1" source="OlggcCYzcKpH4P3dhMfZ-7" target="OlggcCYzcKpH4P3dhMfZ-2">
          <mxGeometry width="50" height="50" relative="1" as="geometry">
            <mxPoint x="-675" y="230" as="sourcePoint" />
            <mxPoint x="-625" y="180" as="targetPoint" />
          </mxGeometry>
        </mxCell>
        <mxCell id="OlggcCYzcKpH4P3dhMfZ-12" value="" style="endArrow=none;html=1;rounded=0;entryX=0.5;entryY=1;entryDx=0;entryDy=0;exitX=0.5;exitY=0;exitDx=0;exitDy=0;" edge="1" parent="1" source="OlggcCYzcKpH4P3dhMfZ-2" target="OlggcCYzcKpH4P3dhMfZ-8">
          <mxGeometry width="50" height="50" relative="1" as="geometry">
            <mxPoint x="-675" y="230" as="sourcePoint" />
            <mxPoint x="-625" y="180" as="targetPoint" />
          </mxGeometry>
        </mxCell>
        <mxCell id="OlggcCYzcKpH4P3dhMfZ-13" value="" style="endArrow=none;html=1;rounded=0;exitX=0.5;exitY=1;exitDx=0;exitDy=0;entryX=0.5;entryY=0;entryDx=0;entryDy=0;" edge="1" parent="1" source="OlggcCYzcKpH4P3dhMfZ-2" target="OlggcCYzcKpH4P3dhMfZ-10">
          <mxGeometry width="50" height="50" relative="1" as="geometry">
            <mxPoint x="-675" y="230" as="sourcePoint" />
            <mxPoint x="-595" y="159.9999999999999" as="targetPoint" />
          </mxGeometry>
        </mxCell>
        <mxCell id="OlggcCYzcKpH4P3dhMfZ-14" value="" style="endArrow=classic;html=1;rounded=0;exitX=1;exitY=0.5;exitDx=0;exitDy=0;entryX=0;entryY=0.5;entryDx=0;entryDy=0;" edge="1" parent="1" source="OlggcCYzcKpH4P3dhMfZ-2" target="CB5iQfPsW-FyMFzqWrHo-1">
          <mxGeometry width="50" height="50" relative="1" as="geometry">
            <mxPoint x="-335" y="325" as="sourcePoint" />
            <mxPoint x="-610" y="310" as="targetPoint" />
          </mxGeometry>
        </mxCell>
        <mxCell id="sHewXxY9us0B_fRdUuYP-1" value="Booking" style="rhombus;whiteSpace=wrap;html=1;" vertex="1" parent="1">
          <mxGeometry x="356.26" y="350" width="100" height="50" as="geometry" />
        </mxCell>
        <mxCell id="sHewXxY9us0B_fRdUuYP-2" value="&lt;u&gt;BookingID&lt;/u&gt;&lt;div&gt;uniqueidentifier&lt;/div&gt;" style="ellipse;whiteSpace=wrap;html=1;" vertex="1" parent="1">
          <mxGeometry x="353.13" y="447.12" width="106.25" height="46.25" as="geometry" />
        </mxCell>
        <mxCell id="sHewXxY9us0B_fRdUuYP-6" value="Passengers" style="rounded=0;whiteSpace=wrap;html=1;" vertex="1" parent="1">
          <mxGeometry x="565" y="351" width="100" height="50" as="geometry" />
        </mxCell>
        <mxCell id="sHewXxY9us0B_fRdUuYP-8" value="&lt;u&gt;PassengerID&lt;/u&gt;&lt;div&gt;uniqueidentifier&lt;/div&gt;" style="ellipse;whiteSpace=wrap;html=1;" vertex="1" parent="1">
          <mxGeometry x="650" y="443.75" width="110" height="55.5" as="geometry" />
        </mxCell>
        <mxCell id="sHewXxY9us0B_fRdUuYP-9" value="FirstName&lt;div&gt;NVARCHAR(MAX)&lt;/div&gt;" style="ellipse;whiteSpace=wrap;html=1;" vertex="1" parent="1">
          <mxGeometry x="755" y="403.75" width="125" height="59.12" as="geometry" />
        </mxCell>
        <mxCell id="sHewXxY9us0B_fRdUuYP-10" value="LastName&lt;div&gt;NVARCHAR(MAX)&lt;/div&gt;" style="ellipse;whiteSpace=wrap;html=1;" vertex="1" parent="1">
          <mxGeometry x="740" y="340.25" width="130" height="58.5" as="geometry" />
        </mxCell>
        <mxCell id="sHewXxY9us0B_fRdUuYP-11" value="PassportNum&lt;div&gt;NVARCHAR(255)&lt;/div&gt;" style="ellipse;whiteSpace=wrap;html=1;" vertex="1" parent="1">
          <mxGeometry x="650" y="213.75" width="120" height="61.5" as="geometry" />
        </mxCell>
        <mxCell id="sHewXxY9us0B_fRdUuYP-12" value="Email&lt;div&gt;NVARCHAR(255)&lt;/div&gt;" style="ellipse;whiteSpace=wrap;html=1;" vertex="1" parent="1">
          <mxGeometry x="740" y="274" width="120" height="60" as="geometry" />
        </mxCell>
        <mxCell id="sHewXxY9us0B_fRdUuYP-13" value="" style="endArrow=none;html=1;rounded=0;exitX=0.5;exitY=0;exitDx=0;exitDy=0;entryX=1;entryY=0.5;entryDx=0;entryDy=0;" edge="1" parent="1" target="sHewXxY9us0B_fRdUuYP-6">
          <mxGeometry width="50" height="50" relative="1" as="geometry">
            <mxPoint x="710" y="443.75" as="sourcePoint" />
            <mxPoint x="745" y="365.25" as="targetPoint" />
          </mxGeometry>
        </mxCell>
        <mxCell id="sHewXxY9us0B_fRdUuYP-14" value="" style="endArrow=none;html=1;rounded=0;exitX=0;exitY=0.5;exitDx=0;exitDy=0;entryX=1;entryY=0.5;entryDx=0;entryDy=0;" edge="1" parent="1" source="sHewXxY9us0B_fRdUuYP-9" target="sHewXxY9us0B_fRdUuYP-6">
          <mxGeometry width="50" height="50" relative="1" as="geometry">
            <mxPoint x="680" y="435.25" as="sourcePoint" />
            <mxPoint x="700" y="405.25" as="targetPoint" />
          </mxGeometry>
        </mxCell>
        <mxCell id="sHewXxY9us0B_fRdUuYP-15" value="" style="endArrow=none;html=1;rounded=0;entryX=1;entryY=0.5;entryDx=0;entryDy=0;exitX=0;exitY=0.5;exitDx=0;exitDy=0;" edge="1" parent="1" source="sHewXxY9us0B_fRdUuYP-10" target="sHewXxY9us0B_fRdUuYP-6">
          <mxGeometry width="50" height="50" relative="1" as="geometry">
            <mxPoint x="645" y="485.25" as="sourcePoint" />
            <mxPoint x="665" y="445.25" as="targetPoint" />
          </mxGeometry>
        </mxCell>
        <mxCell id="sHewXxY9us0B_fRdUuYP-16" value="" style="endArrow=none;html=1;rounded=0;entryX=1;entryY=0.5;entryDx=0;entryDy=0;exitX=0;exitY=0.5;exitDx=0;exitDy=0;" edge="1" parent="1" source="sHewXxY9us0B_fRdUuYP-12" target="sHewXxY9us0B_fRdUuYP-6">
          <mxGeometry width="50" height="50" relative="1" as="geometry">
            <mxPoint x="705" y="475.25" as="sourcePoint" />
            <mxPoint x="725" y="435.25" as="targetPoint" />
          </mxGeometry>
        </mxCell>
        <mxCell id="sHewXxY9us0B_fRdUuYP-17" value="" style="endArrow=none;html=1;rounded=0;entryX=1;entryY=0.5;entryDx=0;entryDy=0;exitX=0.5;exitY=1;exitDx=0;exitDy=0;" edge="1" parent="1" source="sHewXxY9us0B_fRdUuYP-11" target="sHewXxY9us0B_fRdUuYP-6">
          <mxGeometry width="50" height="50" relative="1" as="geometry">
            <mxPoint x="725" y="435.25" as="sourcePoint" />
            <mxPoint x="745" y="395.25" as="targetPoint" />
          </mxGeometry>
        </mxCell>
        <mxCell id="sHewXxY9us0B_fRdUuYP-19" value="" style="endArrow=classic;html=1;rounded=0;exitX=1;exitY=0.5;exitDx=0;exitDy=0;entryX=0;entryY=0.5;entryDx=0;entryDy=0;" edge="1" parent="1" source="F-xZ0R_77eairracCa1--23" target="AvH0W4AKqSuo_TLCoYcX-4">
          <mxGeometry width="50" height="50" relative="1" as="geometry">
            <mxPoint x="210" y="430" as="sourcePoint" />
            <mxPoint x="80" y="380" as="targetPoint" />
          </mxGeometry>
        </mxCell>
        <mxCell id="sHewXxY9us0B_fRdUuYP-20" value="" style="endArrow=classic;html=1;rounded=0;exitX=0;exitY=0.5;exitDx=0;exitDy=0;entryX=1;entryY=0.5;entryDx=0;entryDy=0;" edge="1" parent="1" source="sHewXxY9us0B_fRdUuYP-6" target="sHewXxY9us0B_fRdUuYP-1">
          <mxGeometry width="50" height="50" relative="1" as="geometry">
            <mxPoint x="550" y="437.12" as="sourcePoint" />
            <mxPoint x="456" y="337.12" as="targetPoint" />
          </mxGeometry>
        </mxCell>
        <mxCell id="sHewXxY9us0B_fRdUuYP-23" value="" style="endArrow=none;html=1;rounded=0;entryX=0.5;entryY=1;entryDx=0;entryDy=0;exitX=0.5;exitY=0;exitDx=0;exitDy=0;" edge="1" parent="1" source="sHewXxY9us0B_fRdUuYP-2" target="sHewXxY9us0B_fRdUuYP-1">
          <mxGeometry width="50" height="50" relative="1" as="geometry">
            <mxPoint x="416.25" y="474.37" as="sourcePoint" />
            <mxPoint x="466.25" y="424.37" as="targetPoint" />
          </mxGeometry>
        </mxCell>
        <mxCell id="sHewXxY9us0B_fRdUuYP-25" value="Transactions" style="rounded=0;whiteSpace=wrap;html=1;" vertex="1" parent="1">
          <mxGeometry x="355" y="233.62" width="100" height="45" as="geometry" />
        </mxCell>
        <mxCell id="sHewXxY9us0B_fRdUuYP-26" value="&lt;u&gt;TransactionID&lt;/u&gt;&lt;div&gt;uniqueidentifier&lt;/div&gt;" style="ellipse;whiteSpace=wrap;html=1;" vertex="1" parent="1">
          <mxGeometry x="487.5" y="192.12" width="105" height="55" as="geometry" />
        </mxCell>
        <mxCell id="sHewXxY9us0B_fRdUuYP-27" value="Amount&lt;div&gt;MONEY&lt;/div&gt;" style="ellipse;whiteSpace=wrap;html=1;" vertex="1" parent="1">
          <mxGeometry x="540" y="136.12" width="80" height="48.5" as="geometry" />
        </mxCell>
        <mxCell id="sHewXxY9us0B_fRdUuYP-28" value="PaymentMethod&lt;div&gt;NVARCHAR(MAX)&lt;/div&gt;" style="ellipse;whiteSpace=wrap;html=1;" vertex="1" parent="1">
          <mxGeometry x="420" y="90" width="125" height="65" as="geometry" />
        </mxCell>
        <mxCell id="sHewXxY9us0B_fRdUuYP-29" value="PaymentTime&lt;br&gt;DATETIME" style="ellipse;whiteSpace=wrap;html=1;" vertex="1" parent="1">
          <mxGeometry x="310" y="99.62" width="105" height="58.5" as="geometry" />
        </mxCell>
        <mxCell id="sHewXxY9us0B_fRdUuYP-30" value="isSuccess&lt;div&gt;BOOL&lt;/div&gt;" style="ellipse;whiteSpace=wrap;html=1;" vertex="1" parent="1">
          <mxGeometry x="270" y="167.5" width="85" height="55" as="geometry" />
        </mxCell>
        <mxCell id="sHewXxY9us0B_fRdUuYP-34" value="" style="endArrow=none;html=1;rounded=0;entryX=0;entryY=0.5;entryDx=0;entryDy=0;exitX=0.5;exitY=0;exitDx=0;exitDy=0;" edge="1" parent="1" source="sHewXxY9us0B_fRdUuYP-25" target="sHewXxY9us0B_fRdUuYP-26">
          <mxGeometry width="50" height="50" relative="1" as="geometry">
            <mxPoint x="355" y="327.12" as="sourcePoint" />
            <mxPoint x="475" y="297.12" as="targetPoint" />
          </mxGeometry>
        </mxCell>
        <mxCell id="sHewXxY9us0B_fRdUuYP-35" value="" style="endArrow=none;html=1;rounded=0;entryX=0;entryY=0.5;entryDx=0;entryDy=0;exitX=0.5;exitY=0;exitDx=0;exitDy=0;" edge="1" parent="1" source="sHewXxY9us0B_fRdUuYP-25" target="sHewXxY9us0B_fRdUuYP-27">
          <mxGeometry width="50" height="50" relative="1" as="geometry">
            <mxPoint x="445" y="235.12" as="sourcePoint" />
            <mxPoint x="525" y="207.12" as="targetPoint" />
          </mxGeometry>
        </mxCell>
        <mxCell id="sHewXxY9us0B_fRdUuYP-36" value="" style="endArrow=none;html=1;rounded=0;entryX=0.5;entryY=1;entryDx=0;entryDy=0;exitX=0.5;exitY=0;exitDx=0;exitDy=0;" edge="1" parent="1" source="sHewXxY9us0B_fRdUuYP-25" target="sHewXxY9us0B_fRdUuYP-28">
          <mxGeometry width="50" height="50" relative="1" as="geometry">
            <mxPoint x="405" y="227.12" as="sourcePoint" />
            <mxPoint x="495" y="187.12" as="targetPoint" />
          </mxGeometry>
        </mxCell>
        <mxCell id="sHewXxY9us0B_fRdUuYP-37" value="" style="endArrow=none;html=1;rounded=0;entryX=0.5;entryY=1;entryDx=0;entryDy=0;exitX=0.5;exitY=0;exitDx=0;exitDy=0;" edge="1" parent="1" source="sHewXxY9us0B_fRdUuYP-25" target="sHewXxY9us0B_fRdUuYP-29">
          <mxGeometry width="50" height="50" relative="1" as="geometry">
            <mxPoint x="395" y="227.12" as="sourcePoint" />
            <mxPoint x="435" y="187.12" as="targetPoint" />
          </mxGeometry>
        </mxCell>
        <mxCell id="sHewXxY9us0B_fRdUuYP-38" value="" style="endArrow=none;html=1;rounded=0;entryX=1;entryY=0.5;entryDx=0;entryDy=0;exitX=0.5;exitY=0;exitDx=0;exitDy=0;" edge="1" parent="1" source="sHewXxY9us0B_fRdUuYP-25" target="sHewXxY9us0B_fRdUuYP-30">
          <mxGeometry width="50" height="50" relative="1" as="geometry">
            <mxPoint x="335" y="245.12" as="sourcePoint" />
            <mxPoint x="359.9999999999991" y="194.9999999999999" as="targetPoint" />
          </mxGeometry>
        </mxCell>
        <mxCell id="sHewXxY9us0B_fRdUuYP-39" value="" style="endArrow=classic;html=1;rounded=0;exitX=0.5;exitY=1;exitDx=0;exitDy=0;entryX=0.5;entryY=0;entryDx=0;entryDy=0;" edge="1" parent="1" source="sHewXxY9us0B_fRdUuYP-25" target="sHewXxY9us0B_fRdUuYP-1">
          <mxGeometry width="50" height="50" relative="1" as="geometry">
            <mxPoint x="300" y="347.12" as="sourcePoint" />
            <mxPoint x="360" y="317.12" as="targetPoint" />
          </mxGeometry>
        </mxCell>
        <mxCell id="CB5iQfPsW-FyMFzqWrHo-1" value="Routes" style="rounded=0;whiteSpace=wrap;html=1;" vertex="1" parent="1">
          <mxGeometry x="-410" y="222.01" width="100" height="42.75" as="geometry" />
        </mxCell>
        <mxCell id="CB5iQfPsW-FyMFzqWrHo-3" value="&lt;u&gt;RouteID&lt;/u&gt;&lt;div&gt;&lt;span style=&quot;color: rgb(10, 10, 10); font-family: monospace; text-align: start; white-space: pre; background-color: rgba(245, 248, 255, 0.5);&quot;&gt;&lt;font style=&quot;font-size: 13px;&quot;&gt;uniqueidentifier&lt;/font&gt;&lt;/span&gt;&lt;u&gt;&lt;/u&gt;&lt;/div&gt;" style="ellipse;whiteSpace=wrap;html=1;" vertex="1" parent="1">
          <mxGeometry x="-295" y="140" width="145" height="51" as="geometry" />
        </mxCell>
        <mxCell id="CB5iQfPsW-FyMFzqWrHo-4" value="" style="endArrow=none;html=1;rounded=0;entryX=0;entryY=0.5;entryDx=0;entryDy=0;exitX=0.5;exitY=0;exitDx=0;exitDy=0;" edge="1" parent="1" source="CB5iQfPsW-FyMFzqWrHo-1" target="CB5iQfPsW-FyMFzqWrHo-3">
          <mxGeometry width="50" height="50" relative="1" as="geometry">
            <mxPoint x="-310" y="320" as="sourcePoint" />
            <mxPoint x="-260" y="270" as="targetPoint" />
          </mxGeometry>
        </mxCell>
        <mxCell id="CB5iQfPsW-FyMFzqWrHo-13" value="" style="endArrow=classic;html=1;rounded=0;exitX=0.5;exitY=1;exitDx=0;exitDy=0;entryX=0.5;entryY=0;entryDx=0;entryDy=0;" edge="1" parent="1" source="CB5iQfPsW-FyMFzqWrHo-1" target="F-xZ0R_77eairracCa1--10">
          <mxGeometry width="50" height="50" relative="1" as="geometry">
            <mxPoint x="-390" y="340" as="sourcePoint" />
            <mxPoint x="-340" y="290" as="targetPoint" />
          </mxGeometry>
        </mxCell>
        <mxCell id="AvH0W4AKqSuo_TLCoYcX-1" value="ArrTime&lt;div&gt;DATETIME&lt;/div&gt;" style="ellipse;whiteSpace=wrap;html=1;" vertex="1" parent="1">
          <mxGeometry x="-75" y="173.62" width="90" height="60" as="geometry" />
        </mxCell>
        <mxCell id="AvH0W4AKqSuo_TLCoYcX-2" value="" style="endArrow=none;html=1;rounded=0;entryX=0;entryY=1;entryDx=0;entryDy=0;exitX=0.5;exitY=0;exitDx=0;exitDy=0;" edge="1" parent="1" source="F-xZ0R_77eairracCa1--23" target="AvH0W4AKqSuo_TLCoYcX-1">
          <mxGeometry width="50" height="50" relative="1" as="geometry">
            <mxPoint x="-100" y="350" as="sourcePoint" />
            <mxPoint x="-130" y="300" as="targetPoint" />
          </mxGeometry>
        </mxCell>
        <mxCell id="AvH0W4AKqSuo_TLCoYcX-4" value="Seat" style="rounded=0;whiteSpace=wrap;html=1;" vertex="1" parent="1">
          <mxGeometry x="110" y="345" width="120" height="60" as="geometry" />
        </mxCell>
        <mxCell id="AvH0W4AKqSuo_TLCoYcX-5" value="&lt;u&gt;SeatID&lt;/u&gt;&lt;div&gt;UNIQUEINDENTIFIER&lt;/div&gt;" style="ellipse;whiteSpace=wrap;html=1;" vertex="1" parent="1">
          <mxGeometry x="25" y="433.37" width="140" height="60" as="geometry" />
        </mxCell>
        <mxCell id="AvH0W4AKqSuo_TLCoYcX-6" value="FlightID&lt;div&gt;UNIQUEINDENTIFIER&lt;/div&gt;" style="ellipse;whiteSpace=wrap;html=1;" vertex="1" parent="1">
          <mxGeometry x="180" y="430" width="135" height="63.37" as="geometry" />
        </mxCell>
        <mxCell id="AvH0W4AKqSuo_TLCoYcX-7" value="Description&lt;div&gt;NVARCHAR(MAX)&lt;/div&gt;" style="ellipse;whiteSpace=wrap;html=1;" vertex="1" parent="1">
          <mxGeometry x="50" y="228.63" width="110" height="72.37" as="geometry" />
        </mxCell>
        <mxCell id="AvH0W4AKqSuo_TLCoYcX-8" value="Seat&lt;div&gt;VARCHAR(5)&lt;/div&gt;" style="ellipse;whiteSpace=wrap;html=1;" vertex="1" parent="1">
          <mxGeometry x="240" y="233.62" width="80" height="59.37" as="geometry" />
        </mxCell>
        <mxCell id="AvH0W4AKqSuo_TLCoYcX-9" value="Price&lt;div&gt;MONEY&lt;/div&gt;" style="ellipse;whiteSpace=wrap;html=1;" vertex="1" parent="1">
          <mxGeometry x="160" y="209.13" width="75" height="61.12" as="geometry" />
        </mxCell>
        <mxCell id="AvH0W4AKqSuo_TLCoYcX-10" value="isOccupied&lt;div&gt;BOOL&lt;/div&gt;" style="ellipse;whiteSpace=wrap;html=1;" vertex="1" parent="1">
          <mxGeometry x="270" y="297.63" width="80" height="47.37" as="geometry" />
        </mxCell>
        <mxCell id="AvH0W4AKqSuo_TLCoYcX-11" value="" style="endArrow=none;html=1;rounded=0;exitX=0.534;exitY=0.004;exitDx=0;exitDy=0;exitPerimeter=0;entryX=0.5;entryY=1;entryDx=0;entryDy=0;" edge="1" parent="1" source="AvH0W4AKqSuo_TLCoYcX-5" target="AvH0W4AKqSuo_TLCoYcX-4">
          <mxGeometry width="50" height="50" relative="1" as="geometry">
            <mxPoint x="150" y="410" as="sourcePoint" />
            <mxPoint x="200" y="360" as="targetPoint" />
          </mxGeometry>
        </mxCell>
        <mxCell id="AvH0W4AKqSuo_TLCoYcX-12" value="" style="endArrow=none;html=1;rounded=0;exitX=0.5;exitY=0;exitDx=0;exitDy=0;entryX=0.5;entryY=1;entryDx=0;entryDy=0;" edge="1" parent="1" source="AvH0W4AKqSuo_TLCoYcX-6" target="AvH0W4AKqSuo_TLCoYcX-4">
          <mxGeometry width="50" height="50" relative="1" as="geometry">
            <mxPoint x="150" y="410" as="sourcePoint" />
            <mxPoint x="170" y="410" as="targetPoint" />
          </mxGeometry>
        </mxCell>
        <mxCell id="AvH0W4AKqSuo_TLCoYcX-13" value="" style="endArrow=none;html=1;rounded=0;exitX=0.5;exitY=0;exitDx=0;exitDy=0;entryX=0.5;entryY=1;entryDx=0;entryDy=0;" edge="1" parent="1" source="AvH0W4AKqSuo_TLCoYcX-4" target="AvH0W4AKqSuo_TLCoYcX-7">
          <mxGeometry width="50" height="50" relative="1" as="geometry">
            <mxPoint x="170" y="340" as="sourcePoint" />
            <mxPoint x="190" y="270" as="targetPoint" />
          </mxGeometry>
        </mxCell>
        <mxCell id="AvH0W4AKqSuo_TLCoYcX-14" value="" style="endArrow=none;html=1;rounded=0;exitX=0.5;exitY=0;exitDx=0;exitDy=0;entryX=0.5;entryY=1;entryDx=0;entryDy=0;" edge="1" parent="1" source="AvH0W4AKqSuo_TLCoYcX-4" target="AvH0W4AKqSuo_TLCoYcX-9">
          <mxGeometry width="50" height="50" relative="1" as="geometry">
            <mxPoint x="210" y="350" as="sourcePoint" />
            <mxPoint x="260" y="300" as="targetPoint" />
          </mxGeometry>
        </mxCell>
        <mxCell id="AvH0W4AKqSuo_TLCoYcX-15" value="" style="endArrow=none;html=1;rounded=0;exitX=0.5;exitY=0;exitDx=0;exitDy=0;entryX=0;entryY=1;entryDx=0;entryDy=0;" edge="1" parent="1" source="AvH0W4AKqSuo_TLCoYcX-4" target="AvH0W4AKqSuo_TLCoYcX-8">
          <mxGeometry width="50" height="50" relative="1" as="geometry">
            <mxPoint x="210" y="350" as="sourcePoint" />
            <mxPoint x="260" y="300" as="targetPoint" />
          </mxGeometry>
        </mxCell>
        <mxCell id="AvH0W4AKqSuo_TLCoYcX-16" value="" style="endArrow=none;html=1;rounded=0;exitX=0.5;exitY=0;exitDx=0;exitDy=0;entryX=0;entryY=0.5;entryDx=0;entryDy=0;" edge="1" parent="1" source="AvH0W4AKqSuo_TLCoYcX-4" target="AvH0W4AKqSuo_TLCoYcX-10">
          <mxGeometry width="50" height="50" relative="1" as="geometry">
            <mxPoint x="210" y="350" as="sourcePoint" />
            <mxPoint x="260" y="300" as="targetPoint" />
          </mxGeometry>
        </mxCell>
        <mxCell id="AvH0W4AKqSuo_TLCoYcX-17" value="" style="endArrow=classic;html=1;rounded=0;exitX=1;exitY=0.5;exitDx=0;exitDy=0;entryX=0;entryY=0.5;entryDx=0;entryDy=0;" edge="1" parent="1" source="AvH0W4AKqSuo_TLCoYcX-4" target="sHewXxY9us0B_fRdUuYP-1">
          <mxGeometry width="50" height="50" relative="1" as="geometry">
            <mxPoint x="50" y="370" as="sourcePoint" />
            <mxPoint x="350" y="380" as="targetPoint" />
          </mxGeometry>
        </mxCell>
      </root>
    </mxGraphModel>
  </diagram>
</mxfile>
